M48
;DRILL file {kicad (2014-08-20 BZR 5085)-product} date Wed 10 Sep 2014 10:30:53 AM EEST
;FORMAT={-:-/ absolute / inch / decimal}
FMAT,2
INCH,TZ
T1C0.035
T2C0.040
T3C0.051
T4C0.063
T5C0.071
T6C0.122
%
G90
G05
M72
T1
X0.5Y-1.515
X1.125Y-1.225
X1.125Y-1.42
X1.125Y-1.505
X1.145Y-1.305
X1.47Y-1.52
X1.67Y-1.62
X1.755Y-1.59
X2.0268Y-0.3193
X2.5925Y-0.885
T2
X0.115Y-1.36
X0.215Y-1.36
X0.315Y-1.36
X0.415Y-1.36
X0.505Y-0.33
X0.565Y-1.36
X0.605Y-0.33
X0.6575Y-1.8325
X0.6575Y-1.9825
X0.665Y-1.36
X0.705Y-0.33
X0.765Y-1.36
X0.805Y-0.33
X0.865Y-1.36
X1.0575Y-1.7625
X1.0575Y-1.9625
X1.3839Y-2.1211
X1.49Y-2.015
X1.92Y-1.755
X1.92Y-1.855
X2.02Y-1.755
X2.02Y-1.855
X2.12Y-1.755
X2.12Y-1.855
X2.22Y-1.755
X2.22Y-1.855
X2.32Y-1.755
X2.32Y-1.855
X2.94Y-0.385
X2.94Y-0.485
X2.94Y-0.585
X2.94Y-0.685
X2.94Y-0.785
X2.94Y-1.115
X2.94Y-1.215
X3.04Y-0.385
X3.04Y-0.485
X3.04Y-0.585
X3.04Y-0.685
X3.04Y-0.785
T3
X0.275Y-1.675
X0.275Y-1.8719
T4
X2.79Y-1.43
X2.79Y-1.63
X2.89Y-1.53
X2.99Y-1.43
X2.99Y-1.63
T5
X0.3969Y-0.9966
X1.0228Y-0.5242
T6
X0.15Y-0.15
X0.15Y-2.15
X2.65Y-0.15
X2.65Y-2.15
T0
M30
