%FSLAX45Y45*%
G04 Gerber Fmt 4.5, Leading zero omitted, Abs format (unit mm)*
G04 Created by KiCad (PCBNEW (2014-08-20 BZR 5085)-product) date Wed 10 Sep 2014 10:30:56 AM EEST*
%MOMM*%
G01*
G04 APERTURE LIST*
%ADD10C,0.127000*%
%ADD11C,0.150000*%
%ADD12C,0.200000*%
%ADD13C,0.300000*%
G04 APERTURE END LIST*
D10*
D11*
X0Y0D02*
X8128000Y0D01*
X0Y-5842000D02*
X0Y0D01*
X8128000Y-5842000D02*
X0Y-5842000D01*
X8128000Y0D02*
X8128000Y-5842000D01*
D12*
X1225550Y-3803650D02*
X1314450Y-3892550D01*
X1314450Y-3803650D02*
X1225550Y-3892550D01*
X2813050Y-3067050D02*
X2901950Y-3155950D01*
X2901950Y-3067050D02*
X2813050Y-3155950D01*
X2813050Y-3562350D02*
X2901950Y-3651250D01*
X2901950Y-3562350D02*
X2813050Y-3651250D01*
X2813050Y-3778250D02*
X2901950Y-3867150D01*
X2901950Y-3778250D02*
X2813050Y-3867150D01*
X2863850Y-3270250D02*
X2952750Y-3359150D01*
X2952750Y-3270250D02*
X2863850Y-3359150D01*
X3689350Y-3816350D02*
X3778250Y-3905250D01*
X3778250Y-3816350D02*
X3689350Y-3905250D01*
X4197350Y-4070350D02*
X4286250Y-4159250D01*
X4286250Y-4070350D02*
X4197350Y-4159250D01*
X4413250Y-3994150D02*
X4502150Y-4083050D01*
X4502150Y-3994150D02*
X4413250Y-4083050D01*
X5103659Y-766609D02*
X5192559Y-855509D01*
X5192559Y-766609D02*
X5103659Y-855509D01*
X6540500Y-2203450D02*
X6629400Y-2292350D01*
X6629400Y-2203450D02*
X6540500Y-2292350D01*
X342900Y-3454400D02*
G75*
G03X342900Y-3454400I-50800J0D01*
G74*
G01*
X596900Y-3454400D02*
G75*
G03X596900Y-3454400I-50800J0D01*
G74*
G01*
X850900Y-3454400D02*
G75*
G03X850900Y-3454400I-50800J0D01*
G74*
G01*
X1104900Y-3454400D02*
G75*
G03X1104900Y-3454400I-50800J0D01*
G74*
G01*
X1333500Y-838200D02*
G75*
G03X1333500Y-838200I-50800J0D01*
G74*
G01*
X1485900Y-3454400D02*
G75*
G03X1485900Y-3454400I-50800J0D01*
G74*
G01*
X1587500Y-838200D02*
G75*
G03X1587500Y-838200I-50800J0D01*
G74*
G01*
X1720850Y-4654550D02*
G75*
G03X1720850Y-4654550I-50800J0D01*
G74*
G01*
X1720850Y-5035550D02*
G75*
G03X1720850Y-5035550I-50800J0D01*
G74*
G01*
X1739900Y-3454400D02*
G75*
G03X1739900Y-3454400I-50800J0D01*
G74*
G01*
X1841500Y-838200D02*
G75*
G03X1841500Y-838200I-50800J0D01*
G74*
G01*
X1993900Y-3454400D02*
G75*
G03X1993900Y-3454400I-50800J0D01*
G74*
G01*
X2095500Y-838200D02*
G75*
G03X2095500Y-838200I-50800J0D01*
G74*
G01*
X2247900Y-3454400D02*
G75*
G03X2247900Y-3454400I-50800J0D01*
G74*
G01*
X2736850Y-4476750D02*
G75*
G03X2736850Y-4476750I-50800J0D01*
G74*
G01*
X2736850Y-4984750D02*
G75*
G03X2736850Y-4984750I-50800J0D01*
G74*
G01*
X3565992Y-5387508D02*
G75*
G03X3565992Y-5387508I-50800J0D01*
G74*
G01*
X3835400Y-5118100D02*
G75*
G03X3835400Y-5118100I-50800J0D01*
G74*
G01*
X4927600Y-4457700D02*
G75*
G03X4927600Y-4457700I-50800J0D01*
G74*
G01*
X4927600Y-4711700D02*
G75*
G03X4927600Y-4711700I-50800J0D01*
G74*
G01*
X5181600Y-4457700D02*
G75*
G03X5181600Y-4457700I-50800J0D01*
G74*
G01*
X5181600Y-4711700D02*
G75*
G03X5181600Y-4711700I-50800J0D01*
G74*
G01*
X5435600Y-4457700D02*
G75*
G03X5435600Y-4457700I-50800J0D01*
G74*
G01*
X5435600Y-4711700D02*
G75*
G03X5435600Y-4711700I-50800J0D01*
G74*
G01*
X5689600Y-4457700D02*
G75*
G03X5689600Y-4457700I-50800J0D01*
G74*
G01*
X5689600Y-4711700D02*
G75*
G03X5689600Y-4711700I-50800J0D01*
G74*
G01*
X5943600Y-4457700D02*
G75*
G03X5943600Y-4457700I-50800J0D01*
G74*
G01*
X5943600Y-4711700D02*
G75*
G03X5943600Y-4711700I-50800J0D01*
G74*
G01*
X7518400Y-977900D02*
G75*
G03X7518400Y-977900I-50800J0D01*
G74*
G01*
X7518400Y-1231900D02*
G75*
G03X7518400Y-1231900I-50800J0D01*
G74*
G01*
X7518400Y-1485900D02*
G75*
G03X7518400Y-1485900I-50800J0D01*
G74*
G01*
X7518400Y-1739900D02*
G75*
G03X7518400Y-1739900I-50800J0D01*
G74*
G01*
X7518400Y-1993900D02*
G75*
G03X7518400Y-1993900I-50800J0D01*
G74*
G01*
X7518400Y-2832100D02*
G75*
G03X7518400Y-2832100I-50800J0D01*
G74*
G01*
X7518400Y-3086100D02*
G75*
G03X7518400Y-3086100I-50800J0D01*
G74*
G01*
X7772400Y-977900D02*
G75*
G03X7772400Y-977900I-50800J0D01*
G74*
G01*
X7772400Y-1231900D02*
G75*
G03X7772400Y-1231900I-50800J0D01*
G74*
G01*
X7772400Y-1485900D02*
G75*
G03X7772400Y-1485900I-50800J0D01*
G74*
G01*
X7772400Y-1739900D02*
G75*
G03X7772400Y-1739900I-50800J0D01*
G74*
G01*
X7772400Y-1993900D02*
G75*
G03X7772400Y-1993900I-50800J0D01*
G74*
G01*
X698500Y-4189476D02*
X698500Y-4319524D01*
X633476Y-4254500D02*
X763524Y-4254500D01*
X698500Y-4689602D02*
X698500Y-4819650D01*
X633476Y-4754626D02*
X763524Y-4754626D01*
X225933Y-225933D02*
X536067Y-536067D01*
X536067Y-225933D02*
X225933Y-536067D01*
X536067Y-381000D02*
G75*
G03X536067Y-381000I-155067J0D01*
G74*
G01*
X225933Y-5305933D02*
X536067Y-5616067D01*
X536067Y-5305933D02*
X225933Y-5616067D01*
X536067Y-5461000D02*
G75*
G03X536067Y-5461000I-155067J0D01*
G74*
G01*
X6575933Y-225933D02*
X6886067Y-536067D01*
X6886067Y-225933D02*
X6575933Y-536067D01*
X6886067Y-381000D02*
G75*
G03X6886067Y-381000I-155067J0D01*
G74*
G01*
X6575933Y-5305933D02*
X6886067Y-5616067D01*
X6886067Y-5305933D02*
X6575933Y-5616067D01*
X6886067Y-5461000D02*
G75*
G03X6886067Y-5461000I-155067J0D01*
G74*
G01*
D13*
X263929Y-6315214D02*
X263929Y-6015214D01*
X335357Y-6015214D01*
X378214Y-6029500D01*
X406786Y-6058071D01*
X421071Y-6086643D01*
X435357Y-6143786D01*
X435357Y-6186643D01*
X421071Y-6243786D01*
X406786Y-6272357D01*
X378214Y-6300929D01*
X335357Y-6315214D01*
X263929Y-6315214D01*
X563929Y-6315214D02*
X563929Y-6115214D01*
X563929Y-6172357D02*
X578214Y-6143786D01*
X592500Y-6129500D01*
X621071Y-6115214D01*
X649643Y-6115214D01*
X749643Y-6315214D02*
X749643Y-6115214D01*
X749643Y-6015214D02*
X735357Y-6029500D01*
X749643Y-6043786D01*
X763928Y-6029500D01*
X749643Y-6015214D01*
X749643Y-6043786D01*
X935357Y-6315214D02*
X906786Y-6300929D01*
X892500Y-6272357D01*
X892500Y-6015214D01*
X1092500Y-6315214D02*
X1063929Y-6300929D01*
X1049643Y-6272357D01*
X1049643Y-6015214D01*
X1435357Y-6315214D02*
X1435357Y-6015214D01*
X1535357Y-6229500D01*
X1635357Y-6015214D01*
X1635357Y-6315214D01*
X1906786Y-6315214D02*
X1906786Y-6158071D01*
X1892500Y-6129500D01*
X1863928Y-6115214D01*
X1806786Y-6115214D01*
X1778214Y-6129500D01*
X1906786Y-6300929D02*
X1878214Y-6315214D01*
X1806786Y-6315214D01*
X1778214Y-6300929D01*
X1763928Y-6272357D01*
X1763928Y-6243786D01*
X1778214Y-6215214D01*
X1806786Y-6200929D01*
X1878214Y-6200929D01*
X1906786Y-6186643D01*
X2049643Y-6115214D02*
X2049643Y-6415214D01*
X2049643Y-6129500D02*
X2078214Y-6115214D01*
X2135357Y-6115214D01*
X2163929Y-6129500D01*
X2178214Y-6143786D01*
X2192500Y-6172357D01*
X2192500Y-6258071D01*
X2178214Y-6286643D01*
X2163929Y-6300929D01*
X2135357Y-6315214D01*
X2078214Y-6315214D01*
X2049643Y-6300929D01*
X2321071Y-6286643D02*
X2335357Y-6300929D01*
X2321071Y-6315214D01*
X2306786Y-6300929D01*
X2321071Y-6286643D01*
X2321071Y-6315214D01*
X2321071Y-6129500D02*
X2335357Y-6143786D01*
X2321071Y-6158071D01*
X2306786Y-6143786D01*
X2321071Y-6129500D01*
X2321071Y-6158071D01*
X-96400Y-6765050D02*
X-7500Y-6853950D01*
X-7500Y-6765050D02*
X-96400Y-6853950D01*
X321071Y-6645214D02*
X349643Y-6645214D01*
X378214Y-6659500D01*
X392500Y-6673786D01*
X406786Y-6702357D01*
X421071Y-6759500D01*
X421071Y-6830929D01*
X406786Y-6888071D01*
X392500Y-6916643D01*
X378214Y-6930929D01*
X349643Y-6945214D01*
X321071Y-6945214D01*
X292500Y-6930929D01*
X278214Y-6916643D01*
X263929Y-6888071D01*
X249643Y-6830929D01*
X249643Y-6759500D01*
X263929Y-6702357D01*
X278214Y-6673786D01*
X292500Y-6659500D01*
X321071Y-6645214D01*
X549643Y-6916643D02*
X563929Y-6930929D01*
X549643Y-6945214D01*
X535357Y-6930929D01*
X549643Y-6916643D01*
X549643Y-6945214D01*
X735357Y-6773786D02*
X706786Y-6759500D01*
X692500Y-6745214D01*
X678214Y-6716643D01*
X678214Y-6702357D01*
X692500Y-6673786D01*
X706786Y-6659500D01*
X735357Y-6645214D01*
X792500Y-6645214D01*
X821071Y-6659500D01*
X835357Y-6673786D01*
X849643Y-6702357D01*
X849643Y-6716643D01*
X835357Y-6745214D01*
X821071Y-6759500D01*
X792500Y-6773786D01*
X735357Y-6773786D01*
X706786Y-6788071D01*
X692500Y-6802357D01*
X678214Y-6830929D01*
X678214Y-6888071D01*
X692500Y-6916643D01*
X706786Y-6930929D01*
X735357Y-6945214D01*
X792500Y-6945214D01*
X821071Y-6930929D01*
X835357Y-6916643D01*
X849643Y-6888071D01*
X849643Y-6830929D01*
X835357Y-6802357D01*
X821071Y-6788071D01*
X792500Y-6773786D01*
X992500Y-6945214D02*
X1049643Y-6945214D01*
X1078214Y-6930929D01*
X1092500Y-6916643D01*
X1121071Y-6873786D01*
X1135357Y-6816643D01*
X1135357Y-6702357D01*
X1121071Y-6673786D01*
X1106786Y-6659500D01*
X1078214Y-6645214D01*
X1021071Y-6645214D01*
X992500Y-6659500D01*
X978214Y-6673786D01*
X963928Y-6702357D01*
X963928Y-6773786D01*
X978214Y-6802357D01*
X992500Y-6816643D01*
X1021071Y-6830929D01*
X1078214Y-6830929D01*
X1106786Y-6816643D01*
X1121071Y-6802357D01*
X1135357Y-6773786D01*
X1263929Y-6945214D02*
X1263929Y-6745214D01*
X1263929Y-6773786D02*
X1278214Y-6759500D01*
X1306786Y-6745214D01*
X1349643Y-6745214D01*
X1378214Y-6759500D01*
X1392500Y-6788071D01*
X1392500Y-6945214D01*
X1392500Y-6788071D02*
X1406786Y-6759500D01*
X1435357Y-6745214D01*
X1478214Y-6745214D01*
X1506786Y-6759500D01*
X1521071Y-6788071D01*
X1521071Y-6945214D01*
X1663928Y-6945214D02*
X1663928Y-6745214D01*
X1663928Y-6773786D02*
X1678214Y-6759500D01*
X1706786Y-6745214D01*
X1749643Y-6745214D01*
X1778214Y-6759500D01*
X1792500Y-6788071D01*
X1792500Y-6945214D01*
X1792500Y-6788071D02*
X1806786Y-6759500D01*
X1835357Y-6745214D01*
X1878214Y-6745214D01*
X1906786Y-6759500D01*
X1921071Y-6788071D01*
X1921071Y-6945214D01*
X2506786Y-6630929D02*
X2249643Y-7016643D01*
X2892500Y-6645214D02*
X2921071Y-6645214D01*
X2949643Y-6659500D01*
X2963928Y-6673786D01*
X2978214Y-6702357D01*
X2992500Y-6759500D01*
X2992500Y-6830929D01*
X2978214Y-6888071D01*
X2963928Y-6916643D01*
X2949643Y-6930929D01*
X2921071Y-6945214D01*
X2892500Y-6945214D01*
X2863928Y-6930929D01*
X2849643Y-6916643D01*
X2835357Y-6888071D01*
X2821071Y-6830929D01*
X2821071Y-6759500D01*
X2835357Y-6702357D01*
X2849643Y-6673786D01*
X2863928Y-6659500D01*
X2892500Y-6645214D01*
X3121071Y-6916643D02*
X3135357Y-6930929D01*
X3121071Y-6945214D01*
X3106786Y-6930929D01*
X3121071Y-6916643D01*
X3121071Y-6945214D01*
X3321071Y-6645214D02*
X3349643Y-6645214D01*
X3378214Y-6659500D01*
X3392500Y-6673786D01*
X3406785Y-6702357D01*
X3421071Y-6759500D01*
X3421071Y-6830929D01*
X3406785Y-6888071D01*
X3392500Y-6916643D01*
X3378214Y-6930929D01*
X3349643Y-6945214D01*
X3321071Y-6945214D01*
X3292500Y-6930929D01*
X3278214Y-6916643D01*
X3263928Y-6888071D01*
X3249643Y-6830929D01*
X3249643Y-6759500D01*
X3263928Y-6702357D01*
X3278214Y-6673786D01*
X3292500Y-6659500D01*
X3321071Y-6645214D01*
X3521071Y-6645214D02*
X3706785Y-6645214D01*
X3606785Y-6759500D01*
X3649643Y-6759500D01*
X3678214Y-6773786D01*
X3692500Y-6788071D01*
X3706785Y-6816643D01*
X3706785Y-6888071D01*
X3692500Y-6916643D01*
X3678214Y-6930929D01*
X3649643Y-6945214D01*
X3563928Y-6945214D01*
X3535357Y-6930929D01*
X3521071Y-6916643D01*
X3978214Y-6645214D02*
X3835357Y-6645214D01*
X3821071Y-6788071D01*
X3835357Y-6773786D01*
X3863928Y-6759500D01*
X3935357Y-6759500D01*
X3963928Y-6773786D01*
X3978214Y-6788071D01*
X3992500Y-6816643D01*
X3992500Y-6888071D01*
X3978214Y-6916643D01*
X3963928Y-6930929D01*
X3935357Y-6945214D01*
X3863928Y-6945214D01*
X3835357Y-6930929D01*
X3821071Y-6916643D01*
X4106786Y-6645214D02*
X4106786Y-6702357D01*
X4221071Y-6645214D02*
X4221071Y-6702357D01*
X4663928Y-7059500D02*
X4649643Y-7045214D01*
X4621071Y-7002357D01*
X4606786Y-6973786D01*
X4592500Y-6930929D01*
X4578214Y-6859500D01*
X4578214Y-6802357D01*
X4592500Y-6730929D01*
X4606786Y-6688071D01*
X4621071Y-6659500D01*
X4649643Y-6616643D01*
X4663928Y-6602357D01*
X4935357Y-6945214D02*
X4763928Y-6945214D01*
X4849643Y-6945214D02*
X4849643Y-6645214D01*
X4821071Y-6688071D01*
X4792500Y-6716643D01*
X4763928Y-6730929D01*
X5121071Y-6645214D02*
X5149643Y-6645214D01*
X5178214Y-6659500D01*
X5192500Y-6673786D01*
X5206786Y-6702357D01*
X5221071Y-6759500D01*
X5221071Y-6830929D01*
X5206786Y-6888071D01*
X5192500Y-6916643D01*
X5178214Y-6930929D01*
X5149643Y-6945214D01*
X5121071Y-6945214D01*
X5092500Y-6930929D01*
X5078214Y-6916643D01*
X5063928Y-6888071D01*
X5049643Y-6830929D01*
X5049643Y-6759500D01*
X5063928Y-6702357D01*
X5078214Y-6673786D01*
X5092500Y-6659500D01*
X5121071Y-6645214D01*
X5578214Y-6945214D02*
X5578214Y-6645214D01*
X5706785Y-6945214D02*
X5706785Y-6788071D01*
X5692500Y-6759500D01*
X5663928Y-6745214D01*
X5621071Y-6745214D01*
X5592500Y-6759500D01*
X5578214Y-6773786D01*
X5892500Y-6945214D02*
X5863928Y-6930929D01*
X5849643Y-6916643D01*
X5835357Y-6888071D01*
X5835357Y-6802357D01*
X5849643Y-6773786D01*
X5863928Y-6759500D01*
X5892500Y-6745214D01*
X5935357Y-6745214D01*
X5963928Y-6759500D01*
X5978214Y-6773786D01*
X5992500Y-6802357D01*
X5992500Y-6888071D01*
X5978214Y-6916643D01*
X5963928Y-6930929D01*
X5935357Y-6945214D01*
X5892500Y-6945214D01*
X6163928Y-6945214D02*
X6135357Y-6930929D01*
X6121071Y-6902357D01*
X6121071Y-6645214D01*
X6392500Y-6930929D02*
X6363928Y-6945214D01*
X6306786Y-6945214D01*
X6278214Y-6930929D01*
X6263928Y-6902357D01*
X6263928Y-6788071D01*
X6278214Y-6759500D01*
X6306786Y-6745214D01*
X6363928Y-6745214D01*
X6392500Y-6759500D01*
X6406786Y-6788071D01*
X6406786Y-6816643D01*
X6263928Y-6845214D01*
X6521071Y-6930929D02*
X6549643Y-6945214D01*
X6606786Y-6945214D01*
X6635357Y-6930929D01*
X6649643Y-6902357D01*
X6649643Y-6888071D01*
X6635357Y-6859500D01*
X6606786Y-6845214D01*
X6563928Y-6845214D01*
X6535357Y-6830929D01*
X6521071Y-6802357D01*
X6521071Y-6788071D01*
X6535357Y-6759500D01*
X6563928Y-6745214D01*
X6606786Y-6745214D01*
X6635357Y-6759500D01*
X6749643Y-7059500D02*
X6763928Y-7045214D01*
X6792500Y-7002357D01*
X6806786Y-6973786D01*
X6821071Y-6930929D01*
X6835357Y-6859500D01*
X6835357Y-6802357D01*
X6821071Y-6730929D01*
X6806786Y-6688071D01*
X6792500Y-6659500D01*
X6763928Y-6616643D01*
X6749643Y-6602357D01*
D12*
X-7500Y-7205500D02*
G75*
G03X-7500Y-7205500I-50800J0D01*
G74*
G01*
D13*
X421071Y-7341214D02*
X249643Y-7341214D01*
X335357Y-7341214D02*
X335357Y-7041214D01*
X306786Y-7084071D01*
X278214Y-7112643D01*
X249643Y-7126929D01*
X549643Y-7312643D02*
X563929Y-7326929D01*
X549643Y-7341214D01*
X535357Y-7326929D01*
X549643Y-7312643D01*
X549643Y-7341214D01*
X749643Y-7041214D02*
X778214Y-7041214D01*
X806786Y-7055500D01*
X821071Y-7069786D01*
X835357Y-7098357D01*
X849643Y-7155500D01*
X849643Y-7226929D01*
X835357Y-7284071D01*
X821071Y-7312643D01*
X806786Y-7326929D01*
X778214Y-7341214D01*
X749643Y-7341214D01*
X721071Y-7326929D01*
X706786Y-7312643D01*
X692500Y-7284071D01*
X678214Y-7226929D01*
X678214Y-7155500D01*
X692500Y-7098357D01*
X706786Y-7069786D01*
X721071Y-7055500D01*
X749643Y-7041214D01*
X963928Y-7069786D02*
X978214Y-7055500D01*
X1006786Y-7041214D01*
X1078214Y-7041214D01*
X1106786Y-7055500D01*
X1121071Y-7069786D01*
X1135357Y-7098357D01*
X1135357Y-7126929D01*
X1121071Y-7169786D01*
X949643Y-7341214D01*
X1135357Y-7341214D01*
X1263929Y-7341214D02*
X1263929Y-7141214D01*
X1263929Y-7169786D02*
X1278214Y-7155500D01*
X1306786Y-7141214D01*
X1349643Y-7141214D01*
X1378214Y-7155500D01*
X1392500Y-7184071D01*
X1392500Y-7341214D01*
X1392500Y-7184071D02*
X1406786Y-7155500D01*
X1435357Y-7141214D01*
X1478214Y-7141214D01*
X1506786Y-7155500D01*
X1521071Y-7184071D01*
X1521071Y-7341214D01*
X1663928Y-7341214D02*
X1663928Y-7141214D01*
X1663928Y-7169786D02*
X1678214Y-7155500D01*
X1706786Y-7141214D01*
X1749643Y-7141214D01*
X1778214Y-7155500D01*
X1792500Y-7184071D01*
X1792500Y-7341214D01*
X1792500Y-7184071D02*
X1806786Y-7155500D01*
X1835357Y-7141214D01*
X1878214Y-7141214D01*
X1906786Y-7155500D01*
X1921071Y-7184071D01*
X1921071Y-7341214D01*
X2506786Y-7026929D02*
X2249643Y-7412643D01*
X2892500Y-7041214D02*
X2921071Y-7041214D01*
X2949643Y-7055500D01*
X2963928Y-7069786D01*
X2978214Y-7098357D01*
X2992500Y-7155500D01*
X2992500Y-7226929D01*
X2978214Y-7284071D01*
X2963928Y-7312643D01*
X2949643Y-7326929D01*
X2921071Y-7341214D01*
X2892500Y-7341214D01*
X2863928Y-7326929D01*
X2849643Y-7312643D01*
X2835357Y-7284071D01*
X2821071Y-7226929D01*
X2821071Y-7155500D01*
X2835357Y-7098357D01*
X2849643Y-7069786D01*
X2863928Y-7055500D01*
X2892500Y-7041214D01*
X3121071Y-7312643D02*
X3135357Y-7326929D01*
X3121071Y-7341214D01*
X3106786Y-7326929D01*
X3121071Y-7312643D01*
X3121071Y-7341214D01*
X3321071Y-7041214D02*
X3349643Y-7041214D01*
X3378214Y-7055500D01*
X3392500Y-7069786D01*
X3406785Y-7098357D01*
X3421071Y-7155500D01*
X3421071Y-7226929D01*
X3406785Y-7284071D01*
X3392500Y-7312643D01*
X3378214Y-7326929D01*
X3349643Y-7341214D01*
X3321071Y-7341214D01*
X3292500Y-7326929D01*
X3278214Y-7312643D01*
X3263928Y-7284071D01*
X3249643Y-7226929D01*
X3249643Y-7155500D01*
X3263928Y-7098357D01*
X3278214Y-7069786D01*
X3292500Y-7055500D01*
X3321071Y-7041214D01*
X3678214Y-7141214D02*
X3678214Y-7341214D01*
X3606785Y-7026929D02*
X3535357Y-7241214D01*
X3721071Y-7241214D01*
X3892500Y-7041214D02*
X3921071Y-7041214D01*
X3949643Y-7055500D01*
X3963928Y-7069786D01*
X3978214Y-7098357D01*
X3992500Y-7155500D01*
X3992500Y-7226929D01*
X3978214Y-7284071D01*
X3963928Y-7312643D01*
X3949643Y-7326929D01*
X3921071Y-7341214D01*
X3892500Y-7341214D01*
X3863928Y-7326929D01*
X3849643Y-7312643D01*
X3835357Y-7284071D01*
X3821071Y-7226929D01*
X3821071Y-7155500D01*
X3835357Y-7098357D01*
X3849643Y-7069786D01*
X3863928Y-7055500D01*
X3892500Y-7041214D01*
X4106786Y-7041214D02*
X4106786Y-7098357D01*
X4221071Y-7041214D02*
X4221071Y-7098357D01*
X4663928Y-7455500D02*
X4649643Y-7441214D01*
X4621071Y-7398357D01*
X4606786Y-7369786D01*
X4592500Y-7326929D01*
X4578214Y-7255500D01*
X4578214Y-7198357D01*
X4592500Y-7126929D01*
X4606786Y-7084071D01*
X4621071Y-7055500D01*
X4649643Y-7012643D01*
X4663928Y-6998357D01*
X4906786Y-7141214D02*
X4906786Y-7341214D01*
X4835357Y-7026929D02*
X4763928Y-7241214D01*
X4949643Y-7241214D01*
X5121071Y-7041214D02*
X5149643Y-7041214D01*
X5178214Y-7055500D01*
X5192500Y-7069786D01*
X5206786Y-7098357D01*
X5221071Y-7155500D01*
X5221071Y-7226929D01*
X5206786Y-7284071D01*
X5192500Y-7312643D01*
X5178214Y-7326929D01*
X5149643Y-7341214D01*
X5121071Y-7341214D01*
X5092500Y-7326929D01*
X5078214Y-7312643D01*
X5063928Y-7284071D01*
X5049643Y-7226929D01*
X5049643Y-7155500D01*
X5063928Y-7098357D01*
X5078214Y-7069786D01*
X5092500Y-7055500D01*
X5121071Y-7041214D01*
X5578214Y-7341214D02*
X5578214Y-7041214D01*
X5706785Y-7341214D02*
X5706785Y-7184071D01*
X5692500Y-7155500D01*
X5663928Y-7141214D01*
X5621071Y-7141214D01*
X5592500Y-7155500D01*
X5578214Y-7169786D01*
X5892500Y-7341214D02*
X5863928Y-7326929D01*
X5849643Y-7312643D01*
X5835357Y-7284071D01*
X5835357Y-7198357D01*
X5849643Y-7169786D01*
X5863928Y-7155500D01*
X5892500Y-7141214D01*
X5935357Y-7141214D01*
X5963928Y-7155500D01*
X5978214Y-7169786D01*
X5992500Y-7198357D01*
X5992500Y-7284071D01*
X5978214Y-7312643D01*
X5963928Y-7326929D01*
X5935357Y-7341214D01*
X5892500Y-7341214D01*
X6163928Y-7341214D02*
X6135357Y-7326929D01*
X6121071Y-7298357D01*
X6121071Y-7041214D01*
X6392500Y-7326929D02*
X6363928Y-7341214D01*
X6306786Y-7341214D01*
X6278214Y-7326929D01*
X6263928Y-7298357D01*
X6263928Y-7184071D01*
X6278214Y-7155500D01*
X6306786Y-7141214D01*
X6363928Y-7141214D01*
X6392500Y-7155500D01*
X6406786Y-7184071D01*
X6406786Y-7212643D01*
X6263928Y-7241214D01*
X6521071Y-7326929D02*
X6549643Y-7341214D01*
X6606786Y-7341214D01*
X6635357Y-7326929D01*
X6649643Y-7298357D01*
X6649643Y-7284071D01*
X6635357Y-7255500D01*
X6606786Y-7241214D01*
X6563928Y-7241214D01*
X6535357Y-7226929D01*
X6521071Y-7198357D01*
X6521071Y-7184071D01*
X6535357Y-7155500D01*
X6563928Y-7141214D01*
X6606786Y-7141214D01*
X6635357Y-7155500D01*
X6749643Y-7455500D02*
X6763928Y-7441214D01*
X6792500Y-7398357D01*
X6806786Y-7369786D01*
X6821071Y-7326929D01*
X6835357Y-7255500D01*
X6835357Y-7198357D01*
X6821071Y-7126929D01*
X6806786Y-7084071D01*
X6792500Y-7055500D01*
X6763928Y-7012643D01*
X6749643Y-6998357D01*
X-72524Y-7536476D02*
X-72524Y-7666524D01*
X-137548Y-7601500D02*
X-7500Y-7601500D01*
X421071Y-7737214D02*
X249643Y-7737214D01*
X335357Y-7737214D02*
X335357Y-7437214D01*
X306786Y-7480071D01*
X278214Y-7508643D01*
X249643Y-7522929D01*
X549643Y-7708643D02*
X563929Y-7722929D01*
X549643Y-7737214D01*
X535357Y-7722929D01*
X549643Y-7708643D01*
X549643Y-7737214D01*
X663928Y-7437214D02*
X849643Y-7437214D01*
X749643Y-7551500D01*
X792500Y-7551500D01*
X821071Y-7565786D01*
X835357Y-7580071D01*
X849643Y-7608643D01*
X849643Y-7680071D01*
X835357Y-7708643D01*
X821071Y-7722929D01*
X792500Y-7737214D01*
X706786Y-7737214D01*
X678214Y-7722929D01*
X663928Y-7708643D01*
X1035357Y-7437214D02*
X1063929Y-7437214D01*
X1092500Y-7451500D01*
X1106786Y-7465786D01*
X1121071Y-7494357D01*
X1135357Y-7551500D01*
X1135357Y-7622929D01*
X1121071Y-7680071D01*
X1106786Y-7708643D01*
X1092500Y-7722929D01*
X1063929Y-7737214D01*
X1035357Y-7737214D01*
X1006786Y-7722929D01*
X992500Y-7708643D01*
X978214Y-7680071D01*
X963928Y-7622929D01*
X963928Y-7551500D01*
X978214Y-7494357D01*
X992500Y-7465786D01*
X1006786Y-7451500D01*
X1035357Y-7437214D01*
X1263929Y-7737214D02*
X1263929Y-7537214D01*
X1263929Y-7565786D02*
X1278214Y-7551500D01*
X1306786Y-7537214D01*
X1349643Y-7537214D01*
X1378214Y-7551500D01*
X1392500Y-7580071D01*
X1392500Y-7737214D01*
X1392500Y-7580071D02*
X1406786Y-7551500D01*
X1435357Y-7537214D01*
X1478214Y-7537214D01*
X1506786Y-7551500D01*
X1521071Y-7580071D01*
X1521071Y-7737214D01*
X1663928Y-7737214D02*
X1663928Y-7537214D01*
X1663928Y-7565786D02*
X1678214Y-7551500D01*
X1706786Y-7537214D01*
X1749643Y-7537214D01*
X1778214Y-7551500D01*
X1792500Y-7580071D01*
X1792500Y-7737214D01*
X1792500Y-7580071D02*
X1806786Y-7551500D01*
X1835357Y-7537214D01*
X1878214Y-7537214D01*
X1906786Y-7551500D01*
X1921071Y-7580071D01*
X1921071Y-7737214D01*
X2506786Y-7422929D02*
X2249643Y-7808643D01*
X2892500Y-7437214D02*
X2921071Y-7437214D01*
X2949643Y-7451500D01*
X2963928Y-7465786D01*
X2978214Y-7494357D01*
X2992500Y-7551500D01*
X2992500Y-7622929D01*
X2978214Y-7680071D01*
X2963928Y-7708643D01*
X2949643Y-7722929D01*
X2921071Y-7737214D01*
X2892500Y-7737214D01*
X2863928Y-7722929D01*
X2849643Y-7708643D01*
X2835357Y-7680071D01*
X2821071Y-7622929D01*
X2821071Y-7551500D01*
X2835357Y-7494357D01*
X2849643Y-7465786D01*
X2863928Y-7451500D01*
X2892500Y-7437214D01*
X3121071Y-7708643D02*
X3135357Y-7722929D01*
X3121071Y-7737214D01*
X3106786Y-7722929D01*
X3121071Y-7708643D01*
X3121071Y-7737214D01*
X3321071Y-7437214D02*
X3349643Y-7437214D01*
X3378214Y-7451500D01*
X3392500Y-7465786D01*
X3406785Y-7494357D01*
X3421071Y-7551500D01*
X3421071Y-7622929D01*
X3406785Y-7680071D01*
X3392500Y-7708643D01*
X3378214Y-7722929D01*
X3349643Y-7737214D01*
X3321071Y-7737214D01*
X3292500Y-7722929D01*
X3278214Y-7708643D01*
X3263928Y-7680071D01*
X3249643Y-7622929D01*
X3249643Y-7551500D01*
X3263928Y-7494357D01*
X3278214Y-7465786D01*
X3292500Y-7451500D01*
X3321071Y-7437214D01*
X3692500Y-7437214D02*
X3549643Y-7437214D01*
X3535357Y-7580071D01*
X3549643Y-7565786D01*
X3578214Y-7551500D01*
X3649643Y-7551500D01*
X3678214Y-7565786D01*
X3692500Y-7580071D01*
X3706785Y-7608643D01*
X3706785Y-7680071D01*
X3692500Y-7708643D01*
X3678214Y-7722929D01*
X3649643Y-7737214D01*
X3578214Y-7737214D01*
X3549643Y-7722929D01*
X3535357Y-7708643D01*
X3992500Y-7737214D02*
X3821071Y-7737214D01*
X3906785Y-7737214D02*
X3906785Y-7437214D01*
X3878214Y-7480071D01*
X3849643Y-7508643D01*
X3821071Y-7522929D01*
X4106786Y-7437214D02*
X4106786Y-7494357D01*
X4221071Y-7437214D02*
X4221071Y-7494357D01*
X4663928Y-7851500D02*
X4649643Y-7837214D01*
X4621071Y-7794357D01*
X4606786Y-7765786D01*
X4592500Y-7722929D01*
X4578214Y-7651500D01*
X4578214Y-7594357D01*
X4592500Y-7522929D01*
X4606786Y-7480071D01*
X4621071Y-7451500D01*
X4649643Y-7408643D01*
X4663928Y-7394357D01*
X4763928Y-7465786D02*
X4778214Y-7451500D01*
X4806786Y-7437214D01*
X4878214Y-7437214D01*
X4906786Y-7451500D01*
X4921071Y-7465786D01*
X4935357Y-7494357D01*
X4935357Y-7522929D01*
X4921071Y-7565786D01*
X4749643Y-7737214D01*
X4935357Y-7737214D01*
X5292500Y-7737214D02*
X5292500Y-7437214D01*
X5421071Y-7737214D02*
X5421071Y-7580071D01*
X5406786Y-7551500D01*
X5378214Y-7537214D01*
X5335357Y-7537214D01*
X5306786Y-7551500D01*
X5292500Y-7565786D01*
X5606785Y-7737214D02*
X5578214Y-7722929D01*
X5563928Y-7708643D01*
X5549643Y-7680071D01*
X5549643Y-7594357D01*
X5563928Y-7565786D01*
X5578214Y-7551500D01*
X5606785Y-7537214D01*
X5649643Y-7537214D01*
X5678214Y-7551500D01*
X5692500Y-7565786D01*
X5706785Y-7594357D01*
X5706785Y-7680071D01*
X5692500Y-7708643D01*
X5678214Y-7722929D01*
X5649643Y-7737214D01*
X5606785Y-7737214D01*
X5878214Y-7737214D02*
X5849643Y-7722929D01*
X5835357Y-7694357D01*
X5835357Y-7437214D01*
X6106786Y-7722929D02*
X6078214Y-7737214D01*
X6021071Y-7737214D01*
X5992500Y-7722929D01*
X5978214Y-7694357D01*
X5978214Y-7580071D01*
X5992500Y-7551500D01*
X6021071Y-7537214D01*
X6078214Y-7537214D01*
X6106786Y-7551500D01*
X6121071Y-7580071D01*
X6121071Y-7608643D01*
X5978214Y-7637214D01*
X6235357Y-7722929D02*
X6263928Y-7737214D01*
X6321071Y-7737214D01*
X6349643Y-7722929D01*
X6363928Y-7694357D01*
X6363928Y-7680071D01*
X6349643Y-7651500D01*
X6321071Y-7637214D01*
X6278214Y-7637214D01*
X6249643Y-7622929D01*
X6235357Y-7594357D01*
X6235357Y-7580071D01*
X6249643Y-7551500D01*
X6278214Y-7537214D01*
X6321071Y-7537214D01*
X6349643Y-7551500D01*
X6463928Y-7851500D02*
X6478214Y-7837214D01*
X6506786Y-7794357D01*
X6521071Y-7765786D01*
X6535357Y-7722929D01*
X6549643Y-7651500D01*
X6549643Y-7594357D01*
X6535357Y-7522929D01*
X6521071Y-7480071D01*
X6506786Y-7451500D01*
X6478214Y-7408643D01*
X6463928Y-7394357D01*
D12*
D13*
X421071Y-8133214D02*
X249643Y-8133214D01*
X335357Y-8133214D02*
X335357Y-7833214D01*
X306786Y-7876071D01*
X278214Y-7904643D01*
X249643Y-7918929D01*
X549643Y-8104643D02*
X563929Y-8118929D01*
X549643Y-8133214D01*
X535357Y-8118929D01*
X549643Y-8104643D01*
X549643Y-8133214D01*
X821071Y-7833214D02*
X763928Y-7833214D01*
X735357Y-7847500D01*
X721071Y-7861786D01*
X692500Y-7904643D01*
X678214Y-7961786D01*
X678214Y-8076071D01*
X692500Y-8104643D01*
X706786Y-8118929D01*
X735357Y-8133214D01*
X792500Y-8133214D01*
X821071Y-8118929D01*
X835357Y-8104643D01*
X849643Y-8076071D01*
X849643Y-8004643D01*
X835357Y-7976071D01*
X821071Y-7961786D01*
X792500Y-7947500D01*
X735357Y-7947500D01*
X706786Y-7961786D01*
X692500Y-7976071D01*
X678214Y-8004643D01*
X1035357Y-7833214D02*
X1063929Y-7833214D01*
X1092500Y-7847500D01*
X1106786Y-7861786D01*
X1121071Y-7890357D01*
X1135357Y-7947500D01*
X1135357Y-8018929D01*
X1121071Y-8076071D01*
X1106786Y-8104643D01*
X1092500Y-8118929D01*
X1063929Y-8133214D01*
X1035357Y-8133214D01*
X1006786Y-8118929D01*
X992500Y-8104643D01*
X978214Y-8076071D01*
X963928Y-8018929D01*
X963928Y-7947500D01*
X978214Y-7890357D01*
X992500Y-7861786D01*
X1006786Y-7847500D01*
X1035357Y-7833214D01*
X1263929Y-8133214D02*
X1263929Y-7933214D01*
X1263929Y-7961786D02*
X1278214Y-7947500D01*
X1306786Y-7933214D01*
X1349643Y-7933214D01*
X1378214Y-7947500D01*
X1392500Y-7976071D01*
X1392500Y-8133214D01*
X1392500Y-7976071D02*
X1406786Y-7947500D01*
X1435357Y-7933214D01*
X1478214Y-7933214D01*
X1506786Y-7947500D01*
X1521071Y-7976071D01*
X1521071Y-8133214D01*
X1663928Y-8133214D02*
X1663928Y-7933214D01*
X1663928Y-7961786D02*
X1678214Y-7947500D01*
X1706786Y-7933214D01*
X1749643Y-7933214D01*
X1778214Y-7947500D01*
X1792500Y-7976071D01*
X1792500Y-8133214D01*
X1792500Y-7976071D02*
X1806786Y-7947500D01*
X1835357Y-7933214D01*
X1878214Y-7933214D01*
X1906786Y-7947500D01*
X1921071Y-7976071D01*
X1921071Y-8133214D01*
X2506786Y-7818929D02*
X2249643Y-8204643D01*
X2892500Y-7833214D02*
X2921071Y-7833214D01*
X2949643Y-7847500D01*
X2963928Y-7861786D01*
X2978214Y-7890357D01*
X2992500Y-7947500D01*
X2992500Y-8018929D01*
X2978214Y-8076071D01*
X2963928Y-8104643D01*
X2949643Y-8118929D01*
X2921071Y-8133214D01*
X2892500Y-8133214D01*
X2863928Y-8118929D01*
X2849643Y-8104643D01*
X2835357Y-8076071D01*
X2821071Y-8018929D01*
X2821071Y-7947500D01*
X2835357Y-7890357D01*
X2849643Y-7861786D01*
X2863928Y-7847500D01*
X2892500Y-7833214D01*
X3121071Y-8104643D02*
X3135357Y-8118929D01*
X3121071Y-8133214D01*
X3106786Y-8118929D01*
X3121071Y-8104643D01*
X3121071Y-8133214D01*
X3321071Y-7833214D02*
X3349643Y-7833214D01*
X3378214Y-7847500D01*
X3392500Y-7861786D01*
X3406785Y-7890357D01*
X3421071Y-7947500D01*
X3421071Y-8018929D01*
X3406785Y-8076071D01*
X3392500Y-8104643D01*
X3378214Y-8118929D01*
X3349643Y-8133214D01*
X3321071Y-8133214D01*
X3292500Y-8118929D01*
X3278214Y-8104643D01*
X3263928Y-8076071D01*
X3249643Y-8018929D01*
X3249643Y-7947500D01*
X3263928Y-7890357D01*
X3278214Y-7861786D01*
X3292500Y-7847500D01*
X3321071Y-7833214D01*
X3678214Y-7833214D02*
X3621071Y-7833214D01*
X3592500Y-7847500D01*
X3578214Y-7861786D01*
X3549643Y-7904643D01*
X3535357Y-7961786D01*
X3535357Y-8076071D01*
X3549643Y-8104643D01*
X3563928Y-8118929D01*
X3592500Y-8133214D01*
X3649643Y-8133214D01*
X3678214Y-8118929D01*
X3692500Y-8104643D01*
X3706785Y-8076071D01*
X3706785Y-8004643D01*
X3692500Y-7976071D01*
X3678214Y-7961786D01*
X3649643Y-7947500D01*
X3592500Y-7947500D01*
X3563928Y-7961786D01*
X3549643Y-7976071D01*
X3535357Y-8004643D01*
X3806785Y-7833214D02*
X3992500Y-7833214D01*
X3892500Y-7947500D01*
X3935357Y-7947500D01*
X3963928Y-7961786D01*
X3978214Y-7976071D01*
X3992500Y-8004643D01*
X3992500Y-8076071D01*
X3978214Y-8104643D01*
X3963928Y-8118929D01*
X3935357Y-8133214D01*
X3849643Y-8133214D01*
X3821071Y-8118929D01*
X3806785Y-8104643D01*
X4106786Y-7833214D02*
X4106786Y-7890357D01*
X4221071Y-7833214D02*
X4221071Y-7890357D01*
X4663928Y-8247500D02*
X4649643Y-8233214D01*
X4621071Y-8190357D01*
X4606786Y-8161786D01*
X4592500Y-8118929D01*
X4578214Y-8047500D01*
X4578214Y-7990357D01*
X4592500Y-7918929D01*
X4606786Y-7876071D01*
X4621071Y-7847500D01*
X4649643Y-7804643D01*
X4663928Y-7790357D01*
X4921071Y-7833214D02*
X4778214Y-7833214D01*
X4763928Y-7976071D01*
X4778214Y-7961786D01*
X4806786Y-7947500D01*
X4878214Y-7947500D01*
X4906786Y-7961786D01*
X4921071Y-7976071D01*
X4935357Y-8004643D01*
X4935357Y-8076071D01*
X4921071Y-8104643D01*
X4906786Y-8118929D01*
X4878214Y-8133214D01*
X4806786Y-8133214D01*
X4778214Y-8118929D01*
X4763928Y-8104643D01*
X5292500Y-8133214D02*
X5292500Y-7833214D01*
X5421071Y-8133214D02*
X5421071Y-7976071D01*
X5406786Y-7947500D01*
X5378214Y-7933214D01*
X5335357Y-7933214D01*
X5306786Y-7947500D01*
X5292500Y-7961786D01*
X5606785Y-8133214D02*
X5578214Y-8118929D01*
X5563928Y-8104643D01*
X5549643Y-8076071D01*
X5549643Y-7990357D01*
X5563928Y-7961786D01*
X5578214Y-7947500D01*
X5606785Y-7933214D01*
X5649643Y-7933214D01*
X5678214Y-7947500D01*
X5692500Y-7961786D01*
X5706785Y-7990357D01*
X5706785Y-8076071D01*
X5692500Y-8104643D01*
X5678214Y-8118929D01*
X5649643Y-8133214D01*
X5606785Y-8133214D01*
X5878214Y-8133214D02*
X5849643Y-8118929D01*
X5835357Y-8090357D01*
X5835357Y-7833214D01*
X6106786Y-8118929D02*
X6078214Y-8133214D01*
X6021071Y-8133214D01*
X5992500Y-8118929D01*
X5978214Y-8090357D01*
X5978214Y-7976071D01*
X5992500Y-7947500D01*
X6021071Y-7933214D01*
X6078214Y-7933214D01*
X6106786Y-7947500D01*
X6121071Y-7976071D01*
X6121071Y-8004643D01*
X5978214Y-8033214D01*
X6235357Y-8118929D02*
X6263928Y-8133214D01*
X6321071Y-8133214D01*
X6349643Y-8118929D01*
X6363928Y-8090357D01*
X6363928Y-8076071D01*
X6349643Y-8047500D01*
X6321071Y-8033214D01*
X6278214Y-8033214D01*
X6249643Y-8018929D01*
X6235357Y-7990357D01*
X6235357Y-7976071D01*
X6249643Y-7947500D01*
X6278214Y-7933214D01*
X6321071Y-7933214D01*
X6349643Y-7947500D01*
X6463928Y-8247500D02*
X6478214Y-8233214D01*
X6506786Y-8190357D01*
X6521071Y-8161786D01*
X6535357Y-8118929D01*
X6549643Y-8047500D01*
X6549643Y-7990357D01*
X6535357Y-7918929D01*
X6521071Y-7876071D01*
X6506786Y-7847500D01*
X6478214Y-7804643D01*
X6463928Y-7790357D01*
D12*
D13*
X421071Y-8529214D02*
X249643Y-8529214D01*
X335357Y-8529214D02*
X335357Y-8229214D01*
X306786Y-8272071D01*
X278214Y-8300643D01*
X249643Y-8314929D01*
X549643Y-8500643D02*
X563929Y-8514929D01*
X549643Y-8529214D01*
X535357Y-8514929D01*
X549643Y-8500643D01*
X549643Y-8529214D01*
X735357Y-8357786D02*
X706786Y-8343500D01*
X692500Y-8329214D01*
X678214Y-8300643D01*
X678214Y-8286357D01*
X692500Y-8257786D01*
X706786Y-8243500D01*
X735357Y-8229214D01*
X792500Y-8229214D01*
X821071Y-8243500D01*
X835357Y-8257786D01*
X849643Y-8286357D01*
X849643Y-8300643D01*
X835357Y-8329214D01*
X821071Y-8343500D01*
X792500Y-8357786D01*
X735357Y-8357786D01*
X706786Y-8372071D01*
X692500Y-8386357D01*
X678214Y-8414929D01*
X678214Y-8472072D01*
X692500Y-8500643D01*
X706786Y-8514929D01*
X735357Y-8529214D01*
X792500Y-8529214D01*
X821071Y-8514929D01*
X835357Y-8500643D01*
X849643Y-8472072D01*
X849643Y-8414929D01*
X835357Y-8386357D01*
X821071Y-8372071D01*
X792500Y-8357786D01*
X1035357Y-8229214D02*
X1063929Y-8229214D01*
X1092500Y-8243500D01*
X1106786Y-8257786D01*
X1121071Y-8286357D01*
X1135357Y-8343500D01*
X1135357Y-8414929D01*
X1121071Y-8472072D01*
X1106786Y-8500643D01*
X1092500Y-8514929D01*
X1063929Y-8529214D01*
X1035357Y-8529214D01*
X1006786Y-8514929D01*
X992500Y-8500643D01*
X978214Y-8472072D01*
X963928Y-8414929D01*
X963928Y-8343500D01*
X978214Y-8286357D01*
X992500Y-8257786D01*
X1006786Y-8243500D01*
X1035357Y-8229214D01*
X1263929Y-8529214D02*
X1263929Y-8329214D01*
X1263929Y-8357786D02*
X1278214Y-8343500D01*
X1306786Y-8329214D01*
X1349643Y-8329214D01*
X1378214Y-8343500D01*
X1392500Y-8372071D01*
X1392500Y-8529214D01*
X1392500Y-8372071D02*
X1406786Y-8343500D01*
X1435357Y-8329214D01*
X1478214Y-8329214D01*
X1506786Y-8343500D01*
X1521071Y-8372071D01*
X1521071Y-8529214D01*
X1663928Y-8529214D02*
X1663928Y-8329214D01*
X1663928Y-8357786D02*
X1678214Y-8343500D01*
X1706786Y-8329214D01*
X1749643Y-8329214D01*
X1778214Y-8343500D01*
X1792500Y-8372071D01*
X1792500Y-8529214D01*
X1792500Y-8372071D02*
X1806786Y-8343500D01*
X1835357Y-8329214D01*
X1878214Y-8329214D01*
X1906786Y-8343500D01*
X1921071Y-8372071D01*
X1921071Y-8529214D01*
X2506786Y-8214929D02*
X2249643Y-8600643D01*
X2892500Y-8229214D02*
X2921071Y-8229214D01*
X2949643Y-8243500D01*
X2963928Y-8257786D01*
X2978214Y-8286357D01*
X2992500Y-8343500D01*
X2992500Y-8414929D01*
X2978214Y-8472072D01*
X2963928Y-8500643D01*
X2949643Y-8514929D01*
X2921071Y-8529214D01*
X2892500Y-8529214D01*
X2863928Y-8514929D01*
X2849643Y-8500643D01*
X2835357Y-8472072D01*
X2821071Y-8414929D01*
X2821071Y-8343500D01*
X2835357Y-8286357D01*
X2849643Y-8257786D01*
X2863928Y-8243500D01*
X2892500Y-8229214D01*
X3121071Y-8500643D02*
X3135357Y-8514929D01*
X3121071Y-8529214D01*
X3106786Y-8514929D01*
X3121071Y-8500643D01*
X3121071Y-8529214D01*
X3321071Y-8229214D02*
X3349643Y-8229214D01*
X3378214Y-8243500D01*
X3392500Y-8257786D01*
X3406785Y-8286357D01*
X3421071Y-8343500D01*
X3421071Y-8414929D01*
X3406785Y-8472072D01*
X3392500Y-8500643D01*
X3378214Y-8514929D01*
X3349643Y-8529214D01*
X3321071Y-8529214D01*
X3292500Y-8514929D01*
X3278214Y-8500643D01*
X3263928Y-8472072D01*
X3249643Y-8414929D01*
X3249643Y-8343500D01*
X3263928Y-8286357D01*
X3278214Y-8257786D01*
X3292500Y-8243500D01*
X3321071Y-8229214D01*
X3521071Y-8229214D02*
X3721071Y-8229214D01*
X3592500Y-8529214D01*
X3992500Y-8529214D02*
X3821071Y-8529214D01*
X3906785Y-8529214D02*
X3906785Y-8229214D01*
X3878214Y-8272071D01*
X3849643Y-8300643D01*
X3821071Y-8314929D01*
X4106786Y-8229214D02*
X4106786Y-8286357D01*
X4221071Y-8229214D02*
X4221071Y-8286357D01*
X4663928Y-8643500D02*
X4649643Y-8629214D01*
X4621071Y-8586357D01*
X4606786Y-8557786D01*
X4592500Y-8514929D01*
X4578214Y-8443500D01*
X4578214Y-8386357D01*
X4592500Y-8314929D01*
X4606786Y-8272071D01*
X4621071Y-8243500D01*
X4649643Y-8200643D01*
X4663928Y-8186357D01*
X4763928Y-8257786D02*
X4778214Y-8243500D01*
X4806786Y-8229214D01*
X4878214Y-8229214D01*
X4906786Y-8243500D01*
X4921071Y-8257786D01*
X4935357Y-8286357D01*
X4935357Y-8314929D01*
X4921071Y-8357786D01*
X4749643Y-8529214D01*
X4935357Y-8529214D01*
X5292500Y-8529214D02*
X5292500Y-8229214D01*
X5421071Y-8529214D02*
X5421071Y-8372071D01*
X5406786Y-8343500D01*
X5378214Y-8329214D01*
X5335357Y-8329214D01*
X5306786Y-8343500D01*
X5292500Y-8357786D01*
X5606785Y-8529214D02*
X5578214Y-8514929D01*
X5563928Y-8500643D01*
X5549643Y-8472072D01*
X5549643Y-8386357D01*
X5563928Y-8357786D01*
X5578214Y-8343500D01*
X5606785Y-8329214D01*
X5649643Y-8329214D01*
X5678214Y-8343500D01*
X5692500Y-8357786D01*
X5706785Y-8386357D01*
X5706785Y-8472072D01*
X5692500Y-8500643D01*
X5678214Y-8514929D01*
X5649643Y-8529214D01*
X5606785Y-8529214D01*
X5878214Y-8529214D02*
X5849643Y-8514929D01*
X5835357Y-8486357D01*
X5835357Y-8229214D01*
X6106786Y-8514929D02*
X6078214Y-8529214D01*
X6021071Y-8529214D01*
X5992500Y-8514929D01*
X5978214Y-8486357D01*
X5978214Y-8372071D01*
X5992500Y-8343500D01*
X6021071Y-8329214D01*
X6078214Y-8329214D01*
X6106786Y-8343500D01*
X6121071Y-8372071D01*
X6121071Y-8400643D01*
X5978214Y-8429214D01*
X6235357Y-8514929D02*
X6263928Y-8529214D01*
X6321071Y-8529214D01*
X6349643Y-8514929D01*
X6363928Y-8486357D01*
X6363928Y-8472072D01*
X6349643Y-8443500D01*
X6321071Y-8429214D01*
X6278214Y-8429214D01*
X6249643Y-8414929D01*
X6235357Y-8386357D01*
X6235357Y-8372071D01*
X6249643Y-8343500D01*
X6278214Y-8329214D01*
X6321071Y-8329214D01*
X6349643Y-8343500D01*
X6463928Y-8643500D02*
X6478214Y-8629214D01*
X6506786Y-8586357D01*
X6521071Y-8557786D01*
X6535357Y-8514929D01*
X6549643Y-8443500D01*
X6549643Y-8386357D01*
X6535357Y-8314929D01*
X6521071Y-8272071D01*
X6506786Y-8243500D01*
X6478214Y-8200643D01*
X6463928Y-8186357D01*
X-317634Y-8634433D02*
X-7500Y-8944567D01*
X-7500Y-8634433D02*
X-317634Y-8944567D01*
D12*
X-7500Y-8789500D02*
G75*
G03X-7500Y-8789500I-155067J0D01*
G74*
G01*
D13*
X235357Y-8625214D02*
X421071Y-8625214D01*
X321071Y-8739500D01*
X363928Y-8739500D01*
X392500Y-8753786D01*
X406786Y-8768072D01*
X421071Y-8796643D01*
X421071Y-8868072D01*
X406786Y-8896643D01*
X392500Y-8910929D01*
X363928Y-8925214D01*
X278214Y-8925214D01*
X249643Y-8910929D01*
X235357Y-8896643D01*
X549643Y-8896643D02*
X563929Y-8910929D01*
X549643Y-8925214D01*
X535357Y-8910929D01*
X549643Y-8896643D01*
X549643Y-8925214D01*
X849643Y-8925214D02*
X678214Y-8925214D01*
X763928Y-8925214D02*
X763928Y-8625214D01*
X735357Y-8668072D01*
X706786Y-8696643D01*
X678214Y-8710929D01*
X1035357Y-8625214D02*
X1063929Y-8625214D01*
X1092500Y-8639500D01*
X1106786Y-8653786D01*
X1121071Y-8682357D01*
X1135357Y-8739500D01*
X1135357Y-8810929D01*
X1121071Y-8868072D01*
X1106786Y-8896643D01*
X1092500Y-8910929D01*
X1063929Y-8925214D01*
X1035357Y-8925214D01*
X1006786Y-8910929D01*
X992500Y-8896643D01*
X978214Y-8868072D01*
X963928Y-8810929D01*
X963928Y-8739500D01*
X978214Y-8682357D01*
X992500Y-8653786D01*
X1006786Y-8639500D01*
X1035357Y-8625214D01*
X1263929Y-8925214D02*
X1263929Y-8725214D01*
X1263929Y-8753786D02*
X1278214Y-8739500D01*
X1306786Y-8725214D01*
X1349643Y-8725214D01*
X1378214Y-8739500D01*
X1392500Y-8768072D01*
X1392500Y-8925214D01*
X1392500Y-8768072D02*
X1406786Y-8739500D01*
X1435357Y-8725214D01*
X1478214Y-8725214D01*
X1506786Y-8739500D01*
X1521071Y-8768072D01*
X1521071Y-8925214D01*
X1663928Y-8925214D02*
X1663928Y-8725214D01*
X1663928Y-8753786D02*
X1678214Y-8739500D01*
X1706786Y-8725214D01*
X1749643Y-8725214D01*
X1778214Y-8739500D01*
X1792500Y-8768072D01*
X1792500Y-8925214D01*
X1792500Y-8768072D02*
X1806786Y-8739500D01*
X1835357Y-8725214D01*
X1878214Y-8725214D01*
X1906786Y-8739500D01*
X1921071Y-8768072D01*
X1921071Y-8925214D01*
X2506786Y-8610929D02*
X2249643Y-8996643D01*
X2892500Y-8625214D02*
X2921071Y-8625214D01*
X2949643Y-8639500D01*
X2963928Y-8653786D01*
X2978214Y-8682357D01*
X2992500Y-8739500D01*
X2992500Y-8810929D01*
X2978214Y-8868072D01*
X2963928Y-8896643D01*
X2949643Y-8910929D01*
X2921071Y-8925214D01*
X2892500Y-8925214D01*
X2863928Y-8910929D01*
X2849643Y-8896643D01*
X2835357Y-8868072D01*
X2821071Y-8810929D01*
X2821071Y-8739500D01*
X2835357Y-8682357D01*
X2849643Y-8653786D01*
X2863928Y-8639500D01*
X2892500Y-8625214D01*
X3121071Y-8896643D02*
X3135357Y-8910929D01*
X3121071Y-8925214D01*
X3106786Y-8910929D01*
X3121071Y-8896643D01*
X3121071Y-8925214D01*
X3421071Y-8925214D02*
X3249643Y-8925214D01*
X3335357Y-8925214D02*
X3335357Y-8625214D01*
X3306785Y-8668072D01*
X3278214Y-8696643D01*
X3249643Y-8710929D01*
X3535357Y-8653786D02*
X3549643Y-8639500D01*
X3578214Y-8625214D01*
X3649643Y-8625214D01*
X3678214Y-8639500D01*
X3692500Y-8653786D01*
X3706785Y-8682357D01*
X3706785Y-8710929D01*
X3692500Y-8753786D01*
X3521071Y-8925214D01*
X3706785Y-8925214D01*
X3821071Y-8653786D02*
X3835357Y-8639500D01*
X3863928Y-8625214D01*
X3935357Y-8625214D01*
X3963928Y-8639500D01*
X3978214Y-8653786D01*
X3992500Y-8682357D01*
X3992500Y-8710929D01*
X3978214Y-8753786D01*
X3806785Y-8925214D01*
X3992500Y-8925214D01*
X4106786Y-8625214D02*
X4106786Y-8682357D01*
X4221071Y-8625214D02*
X4221071Y-8682357D01*
X4663928Y-9039500D02*
X4649643Y-9025214D01*
X4621071Y-8982357D01*
X4606786Y-8953786D01*
X4592500Y-8910929D01*
X4578214Y-8839500D01*
X4578214Y-8782357D01*
X4592500Y-8710929D01*
X4606786Y-8668072D01*
X4621071Y-8639500D01*
X4649643Y-8596643D01*
X4663928Y-8582357D01*
X4906786Y-8725214D02*
X4906786Y-8925214D01*
X4835357Y-8610929D02*
X4763928Y-8825214D01*
X4949643Y-8825214D01*
X5292500Y-8925214D02*
X5292500Y-8625214D01*
X5421071Y-8925214D02*
X5421071Y-8768072D01*
X5406786Y-8739500D01*
X5378214Y-8725214D01*
X5335357Y-8725214D01*
X5306786Y-8739500D01*
X5292500Y-8753786D01*
X5606785Y-8925214D02*
X5578214Y-8910929D01*
X5563928Y-8896643D01*
X5549643Y-8868072D01*
X5549643Y-8782357D01*
X5563928Y-8753786D01*
X5578214Y-8739500D01*
X5606785Y-8725214D01*
X5649643Y-8725214D01*
X5678214Y-8739500D01*
X5692500Y-8753786D01*
X5706785Y-8782357D01*
X5706785Y-8868072D01*
X5692500Y-8896643D01*
X5678214Y-8910929D01*
X5649643Y-8925214D01*
X5606785Y-8925214D01*
X5878214Y-8925214D02*
X5849643Y-8910929D01*
X5835357Y-8882357D01*
X5835357Y-8625214D01*
X6106786Y-8910929D02*
X6078214Y-8925214D01*
X6021071Y-8925214D01*
X5992500Y-8910929D01*
X5978214Y-8882357D01*
X5978214Y-8768072D01*
X5992500Y-8739500D01*
X6021071Y-8725214D01*
X6078214Y-8725214D01*
X6106786Y-8739500D01*
X6121071Y-8768072D01*
X6121071Y-8796643D01*
X5978214Y-8825214D01*
X6235357Y-8910929D02*
X6263928Y-8925214D01*
X6321071Y-8925214D01*
X6349643Y-8910929D01*
X6363928Y-8882357D01*
X6363928Y-8868072D01*
X6349643Y-8839500D01*
X6321071Y-8825214D01*
X6278214Y-8825214D01*
X6249643Y-8810929D01*
X6235357Y-8782357D01*
X6235357Y-8768072D01*
X6249643Y-8739500D01*
X6278214Y-8725214D01*
X6321071Y-8725214D01*
X6349643Y-8739500D01*
X6463928Y-9039500D02*
X6478214Y-9025214D01*
X6506786Y-8982357D01*
X6521071Y-8953786D01*
X6535357Y-8910929D01*
X6549643Y-8839500D01*
X6549643Y-8782357D01*
X6535357Y-8710929D01*
X6521071Y-8668072D01*
X6506786Y-8639500D01*
X6478214Y-8596643D01*
X6463928Y-8582357D01*
M02*
