%TF.FileFunction,Soldermask,Top*%
%FSLAX46Y46*%
G04 Gerber Fmt 4.6, Leading zero omitted, Abs format (unit mm)*
G04 Created by KiCad (PCBNEW (2014-08-20 BZR 5085)-product) date Wed 10 Sep 2014 10:30:42 AM EEST*
%MOMM*%
G01*
G04 APERTURE LIST*
%ADD10C,0.150000*%
%ADD11C,2.900000*%
%ADD12R,2.178000X2.178000*%
%ADD13C,2.178000*%
%ADD14C,2.200000*%
%ADD15R,2.899360X2.899360*%
%ADD16C,2.899360*%
%ADD17C,3.501340*%
G04 APERTURE END LIST*
D10*
X0Y0D02*
X81280000Y0D01*
X0Y-58420000D02*
X0Y0D01*
X81280000Y-58420000D02*
X0Y-58420000D01*
X81280000Y0D02*
X81280000Y-58420000D01*
D11*
X73406000Y-38862000D03*
X70866000Y-36322000D03*
X70866000Y-41402000D03*
X75946000Y-41402000D03*
X75946000Y-36322000D03*
D12*
X16700500Y-50355500D03*
D13*
X16700500Y-46545500D03*
D10*
G36*
X37846000Y-49640921D02*
X39386079Y-51181000D01*
X37846000Y-52721079D01*
X36305921Y-51181000D01*
X37846000Y-49640921D01*
X37846000Y-49640921D01*
G37*
D13*
X35151923Y-53875077D03*
D12*
X26860500Y-44767500D03*
D13*
X26860500Y-49847500D03*
D14*
X25980000Y-13314000D03*
X10080000Y-25314000D03*
D10*
G36*
X67389579Y-22479000D02*
X65849500Y-24019079D01*
X64309421Y-22479000D01*
X65849500Y-20938921D01*
X67389579Y-22479000D01*
X67389579Y-22479000D01*
G37*
D13*
X51481090Y-8110590D03*
D15*
X6985000Y-42545000D03*
D16*
X6985000Y-47546260D03*
D12*
X74676000Y-28321000D03*
D13*
X74676000Y-30861000D03*
D12*
X74676000Y-9779000D03*
D13*
X77216000Y-9779000D03*
X74676000Y-12319000D03*
X77216000Y-12319000D03*
X74676000Y-14859000D03*
X77216000Y-14859000D03*
X74676000Y-17399000D03*
X77216000Y-17399000D03*
X74676000Y-19939000D03*
X77216000Y-19939000D03*
D12*
X58928000Y-44577000D03*
D13*
X58928000Y-47117000D03*
X56388000Y-44577000D03*
X56388000Y-47117000D03*
X53848000Y-44577000D03*
X53848000Y-47117000D03*
X51308000Y-44577000D03*
X51308000Y-47117000D03*
X48768000Y-44577000D03*
X48768000Y-47117000D03*
D12*
X14351000Y-34544000D03*
D13*
X16891000Y-34544000D03*
X19431000Y-34544000D03*
X21971000Y-34544000D03*
D12*
X2921000Y-34544000D03*
D13*
X5461000Y-34544000D03*
X8001000Y-34544000D03*
X10541000Y-34544000D03*
D12*
X12827000Y-8382000D03*
D13*
X15367000Y-8382000D03*
X17907000Y-8382000D03*
X20447000Y-8382000D03*
D17*
X67310000Y-3810000D03*
X3810000Y-3810000D03*
X3810000Y-54610000D03*
X67310000Y-54610000D03*
D13*
X42418000Y-41148000D03*
X28575000Y-38227000D03*
X44577000Y-40386000D03*
X28575000Y-31115000D03*
X12700000Y-38481000D03*
X29083000Y-33147000D03*
X28575000Y-36068000D03*
X37338000Y-38608000D03*
M02*
